# xmcd
#
# Track frame offsets: 
#        150
#        20926
#        32903
#        47978
#        66773
#        83614
#        110367
#        126254
#        144241
#        166095
#        177637
#
# Disc length: 2528 seconds
#
# Revision: 16
# Processed by: cddbd v1.5.2PL0 Copyright (c) Steve Scherf et al.
# Submitted via: ExactAudioCopyFreeDBPlugin 1.0
#
DISCID=9709de0b
DTITLE=Dixie Chicks - Top Of The World Tour - Live [CD 1)
DYEAR=2003
DGENRE=Country
TTITLE0=Goodbye Earl
TTITLE1=Some Days You Gotta Dance
TTITLE2=There's Your Trouble
TTITLE3=Long Time Gone
TTITLE4=Tortured, Tangled Hearts
TTITLE5=Travelin' Soldier
TTITLE6=Am I The Only One (Who's Ever Felt This Way)
TTITLE7=Hello Mr. Heartache
TTITLE8=Cold Day In July
TTITLE9=White Trash Wedding
TTITLE10=Lil' Jack Slade
EXTD=
EXTT0=
EXTT1=
EXTT2=
EXTT3=
EXTT4=
EXTT5=
EXTT6=
EXTT7=
EXTT8=
EXTT9=
EXTT10=
PLAYORDER=
